HIERARCHY
ROOT joint_Root
{
	OFFSET 0.0 0.0 0.0
	CHANNELS 6 Xposition Yposition Zposition Zrotation Xrotation Yrotation 
	JOINT Hips
	{
		OFFSET -17.1583 93.1646 452.98
		CHANNELS 6 Xposition Yposition Zposition Zrotation Xrotation Yrotation 
		JOINT Spine
		{
			OFFSET 15.7357 0.0 0.0
			CHANNELS 6 Xposition Yposition Zposition Zrotation Xrotation Yrotation 
			JOINT Chest
			{
				OFFSET 8.98455 -0.406207 0.0
				CHANNELS 6 Xposition Yposition Zposition Zrotation Xrotation Yrotation 
				JOINT Neck
				{
					OFFSET 16.3773 0.0 0.0
					CHANNELS 6 Xposition Yposition Zposition Zrotation Xrotation Yrotation 
					JOINT Head
					{
						OFFSET 6.45672 0.0 0.0
						CHANNELS 6 Xposition Yposition Zposition Zrotation Xrotation Yrotation 
						End Site
						{
							OFFSET 0.0 0.0 0.0
						}
					}
				}
				JOINT Shoulder_L
				{
					OFFSET 12.9942 -0.242716 4.98039
					CHANNELS 6 Xposition Yposition Zposition Zrotation Xrotation Yrotation 
					JOINT UpperArm_L
					{
						OFFSET 5.34809 0.0 0.0
						CHANNELS 6 Xposition Yposition Zposition Zrotation Xrotation Yrotation 
						JOINT LowerArm_L
						{
							OFFSET 24.3286 1.87007e-05 0.0
							CHANNELS 6 Xposition Yposition Zposition Zrotation Xrotation Yrotation 
							JOINT Hand_L
							{
								OFFSET 22.2916 0.0 0.0
								CHANNELS 6 Xposition Yposition Zposition Zrotation Xrotation Yrotation 
								End Site
								{
									OFFSET 0.0 0.0 0.0
								}
							}
						}
					}
				}
				JOINT Shoulder_R
				{
					OFFSET 12.9945 -0.242716 -4.98039
					CHANNELS 6 Xposition Yposition Zposition Zrotation Xrotation Yrotation 
					JOINT UpperArm_R
					{
						OFFSET -5.34813 0.0 0.0
						CHANNELS 6 Xposition Yposition Zposition Zrotation Xrotation Yrotation 
						JOINT LowerArm_R
						{
							OFFSET -24.3289 0.000322201 0.0
							CHANNELS 6 Xposition Yposition Zposition Zrotation Xrotation Yrotation 
							JOINT Hand_R
							{
								OFFSET -22.2915 -0.000108084 0.0
								CHANNELS 6 Xposition Yposition Zposition Zrotation Xrotation Yrotation 
								End Site
								{
									OFFSET 0.0 0.0 0.0
								}
							}
						}
					}
				}
			}
		}
		JOINT UpperLeg_L
		{
			OFFSET -2.19248 -6.46944 0.0
			CHANNELS 6 Xposition Yposition Zposition Zrotation Xrotation Yrotation 
			JOINT LowerLeg_L
			{
				OFFSET 39.0811 0.0 -1.23785e-05
				CHANNELS 6 Xposition Yposition Zposition Zrotation Xrotation Yrotation 
				JOINT Foot_L
				{
					OFFSET 40.9854 0.0 -1.26872e-05
					CHANNELS 6 Xposition Yposition Zposition Zrotation Xrotation Yrotation 
					JOINT Toes_L
					{
						OFFSET 11.7543 0.0 0.0
						CHANNELS 6 Xposition Yposition Zposition Zrotation Xrotation Yrotation 
						End Site
						{
							OFFSET 0.0 0.0 0.0
						}
					}
				}
			}
		}
		JOINT UpperLeg_R
		{
			OFFSET -2.19251 6.46944 0.0
			CHANNELS 6 Xposition Yposition Zposition Zrotation Xrotation Yrotation 
			JOINT LowerLeg_R
			{
				OFFSET -39.0811 -0.00228153 -0.0401928
				CHANNELS 6 Xposition Yposition Zposition Zrotation Xrotation Yrotation 
				JOINT Foot_R
				{
					OFFSET -40.9854 0.0 0.0
					CHANNELS 6 Xposition Yposition Zposition Zrotation Xrotation Yrotation 
					JOINT Toes_R
					{
						OFFSET -11.7543 0.0 0.0
						CHANNELS 6 Xposition Yposition Zposition Zrotation Xrotation Yrotation 
						End Site
						{
							OFFSET 0.0 0.0 0.0
						}
					}
				}
			}
		}
	}
}
MOTION
Frames:	6
Frame Time:	0.0333333
0.000000 0.000000 0.000000 0.000000 0.000000 -0.000000 136.156000 90.518400 203.695000 -82.280400 29.764700 175.143000 15.735700 0.000005 -0.000001 50.829300 84.802900 -46.409600 8.984550 -0.406207 -0.000000 0.579086 -6.840100 8.876410 16.377300 -0.000001 -0.000001 2.042700 10.617400 0.699180 6.456720 -0.000001 -0.000000 3.365250 18.835800 3.274950 12.994200 -0.242716 4.980390 -92.225000 6.744720 -71.695300 5.348090 -0.000007 -0.000001 -65.966800 19.036300 -15.441800 24.328600 0.000019 0.000005 20.084600 9.243260 -66.284200 22.291600 -0.000001 0.000005 2.136070 5.177570 3.275730 12.994500 -0.242716 -4.980390 88.976700 2.713620 -69.329900 -5.348130 -0.000001 -0.000004 -67.893100 -7.112740 22.009300 -24.328900 0.000322 -0.000009 -0.001050 19.728400 0.000089 -22.291500 -0.000108 -0.000004 -4.124620 4.944050 8.487060 -2.192480 -6.469440 -0.000000 -178.758000 7.783120 15.854100 39.081100 -0.000007 -0.000012 -0.000229 0.000976 13.163300 40.985400 -0.000006 -0.000013 10.190100 26.941100 -63.906800 11.754300 -0.000000 0.000003 -0.027460 -0.205588 -24.993500 -2.192510 6.469440 -0.000001 176.488000 5.431370 160.648000 -39.081100 -0.002282 -0.040193 0.003453 -0.001068 5.697240 -40.985400 0.000008 0.000006 -14.054400 1.366790 -68.120100 -11.754300 -0.000006 -0.000006 0.000870 0.151450 -10.431200
0.000000 0.000000 0.000000 0.000000 0.000000 -0.000000 140.331000 89.741200 200.634000 -81.348300 29.027100 174.561000 15.735700 0.000005 -0.000001 49.410000 84.987300 -44.853300 8.984550 -0.406207 -0.000000 0.140367 -6.824110 9.124620 16.377300 -0.000001 -0.000001 1.960520 10.498700 1.029300 6.456720 -0.000001 -0.000000 2.608440 18.607300 3.681000 12.994200 -0.242716 4.980390 -92.260600 6.882020 -71.766300 5.348090 -0.000007 -0.000001 -66.027900 18.116600 -14.454100 24.328600 0.000019 0.000005 15.627500 7.976390 -63.614600 22.291600 -0.000001 0.000005 3.833490 5.245470 1.552400 12.994500 -0.242716 -4.980390 88.827700 3.167330 -69.677100 -5.348130 -0.000001 -0.000004 -67.174900 -5.239560 20.652700 -24.328900 0.000322 -0.000009 -0.001047 20.933300 0.000096 -22.291500 -0.000108 -0.000004 -1.642040 4.908380 9.210180 -2.192480 -6.469440 -0.000000 -176.242000 6.520740 16.591300 39.081100 -0.000007 -0.000012 -0.001621 0.005522 16.356100 40.985400 -0.000006 -0.000013 10.443500 28.500500 -62.426900 11.754300 -0.000000 0.000003 -0.063086 -0.341689 -30.699400 -2.192510 6.469440 -0.000001 179.616000 5.732730 158.175000 -39.081100 -0.002282 -0.040193 0.001656 0.009612 9.931930 -40.985400 0.000008 0.000006 -15.901200 2.052190 -67.403700 -11.754300 -0.000006 -0.000006 0.001872 0.125562 -11.481500
0.000000 0.000000 0.000000 0.000000 0.000000 -0.000000 144.681000 88.852400 197.208000 -80.006400 27.881600 173.003000 15.735700 0.000005 -0.000001 42.646000 85.577300 -37.811600 8.984550 -0.406207 -0.000000 -1.466340 -6.893680 9.587510 16.377300 -0.000001 -0.000001 2.730450 10.259400 1.018430 6.456720 -0.000001 -0.000000 2.120500 18.215600 4.147940 12.994200 -0.242716 4.980390 -92.419700 7.259270 -71.509300 5.348090 -0.000007 -0.000001 -66.974700 17.459100 -12.350600 24.328600 0.000019 0.000005 10.153400 6.281250 -58.578400 22.291600 -0.000001 0.000005 5.022860 5.258920 1.195910 12.994500 -0.242716 -4.980390 88.647400 3.703130 -69.918300 -5.348130 -0.000001 -0.000004 -66.044400 -3.571060 19.511400 -24.328900 0.000322 -0.000009 -0.001048 21.760900 0.000100 -22.291500 -0.000108 -0.000004 2.268840 4.912490 9.127870 -2.192480 -6.469440 -0.000000 -172.908000 5.286420 15.980500 39.081100 -0.000007 -0.000012 -0.006354 0.017284 20.183200 40.985400 -0.000006 -0.000013 9.724330 30.716300 -58.991900 11.754300 -0.000000 0.000003 -0.121162 -0.494302 -37.323200 -2.192510 6.469440 -0.000001 -177.785000 3.423810 151.479000 -39.081100 -0.002282 -0.040193 -0.012189 0.036155 23.211300 -40.985400 0.000008 0.000006 -10.031200 4.944580 -60.957200 -11.754300 -0.000006 -0.000006 0.002274 0.108475 -12.174400
0.000000 0.000000 0.000000 0.000000 0.000000 -0.000000 149.069000 87.954600 193.390000 -78.598400 25.688400 172.470000 15.735700 0.000005 -0.000001 37.130000 85.889100 -31.911600 8.984550 -0.406207 -0.000000 -2.469010 -7.018020 10.296000 16.377300 -0.000001 -0.000001 3.160930 9.681740 0.887443 6.456720 -0.000001 -0.000000 1.990890 17.480700 4.143260 12.994200 -0.242716 4.980390 -92.851000 8.641060 -71.661500 5.348090 -0.000007 -0.000001 -68.020400 16.038300 -9.875390 24.328600 0.000019 0.000005 7.638930 5.883900 -52.607800 22.291600 -0.000001 0.000005 4.709480 5.207740 2.524470 12.994500 -0.242716 -4.980390 88.368200 4.465260 -69.902300 -5.348130 -0.000001 -0.000004 -64.550500 -3.045470 17.769200 -24.328900 0.000322 -0.000009 0.165479 19.292300 -0.503947 -22.291500 -0.000108 -0.000004 6.858050 4.980460 7.732790 -2.192480 -6.469440 -0.000000 -169.658000 5.864800 14.663400 39.081100 -0.000007 -0.000012 -0.011775 0.024491 25.677200 40.985400 -0.000006 -0.000013 5.656800 32.598000 -50.858500 11.754300 -0.000000 0.000003 -0.182286 -0.614849 -42.805100 -2.192510 6.469440 -0.000001 -176.522000 -0.880177 149.203000 -39.081100 -0.002282 -0.040193 0.094549 -0.141132 32.885900 -40.985400 0.000008 0.000006 -8.853760 -1.148610 -62.355500 -11.754300 -0.000006 -0.000006 -0.001758 0.193315 -8.730640
0.000000 0.000000 0.000000 0.000000 0.000000 -0.000000 153.006000 87.409900 189.466000 -77.176400 22.449100 173.981000 15.735700 0.000005 -0.000001 40.876300 85.343300 -35.147100 8.984550 -0.406207 -0.000000 -1.271680 -7.491500 11.385100 16.377300 -0.000001 -0.000001 2.340850 9.098130 1.191880 6.456720 -0.000001 -0.000000 1.801390 16.587200 3.359500 12.994200 -0.242716 4.980390 -93.272900 10.060600 -71.873900 5.348090 -0.000007 -0.000001 -70.346900 12.688400 -8.309210 24.328600 0.000019 0.000005 9.354650 9.528010 -44.863100 22.291600 -0.000001 0.000005 4.104250 5.170060 3.459080 12.994500 -0.242716 -4.980390 88.039200 5.484740 -70.293200 -5.348130 -0.000001 -0.000004 -63.480200 -3.075790 13.424200 -24.328900 0.000322 -0.000009 0.163233 13.003800 -0.729944 -22.291500 -0.000108 -0.000004 11.079000 5.064400 5.918670 -2.192480 -6.469440 -0.000000 -166.437000 7.518720 12.047900 39.081100 -0.000007 -0.000012 -0.012208 0.017800 34.446200 40.985400 -0.000006 -0.000013 -1.194340 33.271700 -38.812200 11.754300 -0.000000 0.000003 -0.125892 -0.504739 -37.787800 -2.192510 6.469440 -0.000001 -174.205000 -1.337160 151.612000 -39.081100 -0.002282 -0.040193 0.123870 -0.147551 39.258200 -40.985400 0.000008 0.000006 -9.923600 -3.517390 -68.625300 -11.754300 -0.000006 -0.000006 -0.006288 0.241093 -6.784990
0.000000 0.000000 0.000000 0.000000 0.000000 -0.000000 156.188000 87.461000 186.052000 -75.747800 18.365200 175.199000 15.735700 0.000005 -0.000001 45.789100 84.969400 -39.387500 8.984550 -0.406207 -0.000000 -0.100077 -7.452300 12.804500 16.377300 -0.000001 -0.000001 1.249430 7.766320 1.763150 6.456720 -0.000001 -0.000000 1.108960 15.050200 2.592710 12.994200 -0.242716 4.980390 -93.427300 10.738800 -72.182100 5.348090 -0.000007 -0.000001 -72.966300 11.735500 -7.818290 24.328600 0.000019 0.000005 8.822830 13.083400 -34.437800 22.291600 -0.000001 0.000005 5.930780 5.111300 4.852510 12.994500 -0.242716 -4.980390 87.813600 6.206690 -70.550900 -5.348130 -0.000001 -0.000004 -62.726700 -3.687760 7.642730 -24.328900 0.000322 -0.000009 0.156935 6.905390 -1.313930 -22.291500 -0.000108 -0.000004 12.942000 5.094220 5.245730 -2.192480 -6.469440 -0.000000 -163.090000 10.235000 5.722680 39.081100 -0.000007 -0.000012 0.105486 -0.108061 44.308400 40.985400 -0.000006 -0.000013 -14.201200 26.408000 -22.411900 11.754300 -0.000000 0.000003 -0.003226 -0.043138 -18.331200 -2.192510 6.469440 -0.000001 -171.289000 2.751230 155.701000 -39.081100 -0.002282 -0.040193 0.124723 -0.141507 40.637300 -40.985400 0.000008 0.000006 -9.286960 -3.129280 -72.447200 -11.754300 -0.000006 -0.000006 -0.006520 0.243154 -6.700920
